<svg data-name="Layer 1" height="224.315" width="571.76752" xmlns="http://www.w3.org/2000/svg" viewBox="0 0 71.09 12.03"><path d="M10.3 7.81a4.4 4.4 0 0 1-1.48 3.13 5.48 5.48 0 0 1-3.55 1.1 4.85 4.85 0 0 1-3.92-1.57A6.39 6.39 0 0 1 0 6.05a6.39 6.39 0 0 1 1.38-4.48A5.2 5.2 0 0 1 5.46 0a5.17 5.17 0 0 1 3.46 1.1 4.29 4.29 0 0 1 1.38 3H8.89a1.14 1.14 0 0 1-1.12-.74 3.56 3.56 0 0 0-.56-.76 2.84 2.84 0 0 0-1.75-.5 2.82 2.82 0 0 0-2.33 1 4.6 4.6 0 0 0-.79 2.92 4.49 4.49 0 0 0 .79 2.86 2.62 2.62 0 0 0 2.27 1 2.79 2.79 0 0 0 1.74-.53 2.73 2.73 0 0 0 .89-1.6zm1.92 3.16a3.25 3.25 0 0 1-1-1.61 7.73 7.73 0 0 1-.29-2.11 6.83 6.83 0 0 1 .24-1.79 3.82 3.82 0 0 1 .78-1.5 3.36 3.36 0 0 1 2.2-1.18 5 5 0 0 1 2.47.22 3.34 3.34 0 0 1 1.84 1.72 5.49 5.49 0 0 1 .56 2.56 6.18 6.18 0 0 1-.23 1.83 4.73 4.73 0 0 1-.59 1.3 3.29 3.29 0 0 1-2 1.36 4.39 4.39 0 0 1-2.19.05 3.87 3.87 0 0 1-1.76-.85zm1.58-5.85a3.07 3.07 0 0 0-.62 2.24 3.54 3.54 0 0 0 .56 2.11 1.43 1.43 0 0 0 .69.45 1.56 1.56 0 0 0 1 0 1.74 1.74 0 0 0 .91-.74 3.81 3.81 0 0 0 .42-1.82 3.35 3.35 0 0 0-.38-1.8 1.68 1.68 0 0 0-.87-.76 1.6 1.6 0 0 0-1 0 1.72 1.72 0 0 0-.72.38zm13.54 6.65h-1.15a1.09 1.09 0 0 1-.81-.31 1.12 1.12 0 0 1-.31-.82V6.12a1.36 1.36 0 0 0-.45-1.16 1.68 1.68 0 0 0-1.07-.37 1.62 1.62 0 0 0-1 .37 1.38 1.38 0 0 0-.46 1.16v5.65H19.7V6.59q0-2.27 1.17-3a5.12 5.12 0 0 1 2.59-.83 4.91 4.91 0 0 1 2.66.77c.82.51 1.22 1.54 1.22 3.09v5.18zm4.59 0a17.11 17.11 0 0 1-2.36 0c-.84-.07-1.27-.61-1.27-1.63V.36h1.19a1.06 1.06 0 0 1 .76.33 1.09 1.09 0 0 1 .33.8v1.47h1.35v.47a1.07 1.07 0 0 1-.33.81 1.12 1.12 0 0 1-.79.32h-.19v4.92c0 .37.21.56.65.56h.69v1.73zm6.13-.36a4 4 0 0 1-1.47.44 11.88 11.88 0 0 1-1.36.09 3.45 3.45 0 0 1-2.08-.65 2.49 2.49 0 0 1-.89-2.15 2.31 2.31 0 0 1 .81-2 4.69 4.69 0 0 1 2.06-.78 1.49 1.49 0 0 0 .39 0c.16 0 .33-.06.53-.08 1-.13 1.45-.42 1.45-.86a.63.63 0 0 0-.51-.65 3.33 3.33 0 0 0-.94-.15 2.31 2.31 0 0 0-.82.13.93.93 0 0 0-.53.5h-2.2a2.49 2.49 0 0 1 .92-1.69 3.75 3.75 0 0 1 2.53-.77 5 5 0 0 1 2.77.57 2.17 2.17 0 0 1 .95 1.86v3a3.93 3.93 0 0 1-.47 2.14 2.92 2.92 0 0 1-1.14 1.08zm-.53-4.05a6.29 6.29 0 0 1-1.28.43l-.76.16a1.91 1.91 0 0 0-.87.41 1.36 1.36 0 0 0-.23.73 1.09 1.09 0 0 0 .3.8 1.28 1.28 0 0 0 .86.26 2 2 0 0 0 1.44-.53 2 2 0 0 0 .53-1.46v-.8zm7.68-7h1.85l4.11 11.43H48.7l-.76-2.36h-4.41l-.72 2.36h-2.47L44.09 1.1a1.1 1.1 0 0 1 1.12-.74zm.53 2.29l-1.58 4.83h3.16zm6.3 9.14v-1.78l4.7-5.25h-3.32a1.1 1.1 0 0 1-.8-.32 1 1 0 0 1-.33-.78v-.73h7.18v1.89l-4.65 5h4.8v1.93zm15.94-8.86v5.19c0 1.57-.41 2.6-1.22 3.09a5.15 5.15 0 0 1-2.67.73 5.29 5.29 0 0 1-2.58-.8c-.78-.49-1.17-1.5-1.17-3V2.93h2.28v5.65a1.38 1.38 0 0 0 .46 1.16 1.62 1.62 0 0 0 1.05.37 1.66 1.66 0 0 0 1.07-.37 1.36 1.36 0 0 0 .48-1.16V4.06a1.12 1.12 0 0 1 .31-.8 1.07 1.07 0 0 1 .81-.33zm.8-2.57h1.18a1.09 1.09 0 0 1 .79.31 1 1 0 0 1 .33.78v10.32h-2.3V.36z" fill="#96a8bc"/></svg>
